HIERARCHY
ROOT Hips
{
	OFFSET 0.000000 83.214638 0.000000
	CHANNELS 6 Xposition Yposition Zposition Xrotation Yrotation Zrotation
	JOINT Pelvis
	{
		OFFSET 0.000000 0.000000 0.000000
		CHANNELS 3 Xrotation Yrotation Zrotation
		JOINT LeftUpLeg
		{
			OFFSET 8.479700 -4.795502 -0.379100
			CHANNELS 3 Xrotation Yrotation Zrotation
			JOINT LeftLeg
			{
				OFFSET 0.024144 -32.555107 0.112900
				CHANNELS 3 Xrotation Yrotation Zrotation
				JOINT LeftFoot
				{
					OFFSET -0.024144 -32.638630 -3.012600
					CHANNELS 3 Xrotation Yrotation Zrotation
					JOINT LeftToeBase
					{
						OFFSET 0.970200 -13.225400 11.864200
						CHANNELS 3 Xrotation Yrotation Zrotation
						End Site
						{
							OFFSET 0.000000 12.319262 0.000000
						}
					}
					JOINT LFootTongue
					{
						OFFSET 1.142400 -1.059800 6.665200
						CHANNELS 3 Xrotation Yrotation Zrotation
						End Site
						{
							OFFSET 0.000000 12.319262 0.000000
						}
					}
				}
				JOINT LeftPantLeg
				{
					OFFSET 0.918482 -16.533964 -2.284700
					CHANNELS 3 Xrotation Yrotation Zrotation
					End Site
					{
						OFFSET 0.350399 24.744368 0.000000
					}
				}
			}
		}
		JOINT RightUpLeg
		{
			OFFSET -8.479700 -4.795502 -0.379100
			CHANNELS 3 Xrotation Yrotation Zrotation
			JOINT RightLeg
			{
				OFFSET -0.023144 -32.555092 0.112900
				CHANNELS 3 Xrotation Yrotation Zrotation
				JOINT RightFoot
				{
					OFFSET 0.023144 -32.638641 -3.012700
					CHANNELS 3 Xrotation Yrotation Zrotation
					JOINT RightToeBase
					{
						OFFSET -0.970200 -13.225400 11.864200
						CHANNELS 3 Xrotation Yrotation Zrotation
						End Site
						{
							OFFSET 0.000000 12.319244 0.000000
						}
					}
					JOINT RFootTongue
					{
						OFFSET -1.142200 -1.059800 6.665200
						CHANNELS 3 Xrotation Yrotation Zrotation
						End Site
						{
							OFFSET 0.000000 12.319243 0.000000
						}
					}
				}
				JOINT RightPantLeg
				{
					OFFSET -0.919482 -16.533978 -2.284800
					CHANNELS 3 Xrotation Yrotation Zrotation
					End Site
					{
						OFFSET -0.350400 24.744419 0.000000
					}
				}
			}
		}
	}
	JOINT Spine
	{
		OFFSET 0.000000 7.722000 1.166200
		CHANNELS 3 Xrotation Yrotation Zrotation
		JOINT Spine1
		{
			OFFSET 0.000000 12.024101 0.248800
			CHANNELS 3 Xrotation Yrotation Zrotation
			JOINT Spine2
			{
				OFFSET 0.000000 11.502998 -0.491200
				CHANNELS 3 Xrotation Yrotation Zrotation
				JOINT Neck
				{
					OFFSET 0.000000 18.430702 -3.123100
					CHANNELS 3 Xrotation Yrotation Zrotation
					JOINT Head
					{
						OFFSET 0.000000 9.051102 1.034000
						CHANNELS 3 Xrotation Yrotation Zrotation
						JOINT HairB
						{
							OFFSET 0.208400 24.786102 24.822300
							CHANNELS 3 Xrotation Yrotation Zrotation
							End Site
							{
								OFFSET 0.000000 32.263779 0.000000
							}
						}
						JOINT HairA
						{
							OFFSET -7.081100 24.428299 23.196600
							CHANNELS 3 Xrotation Yrotation Zrotation
							End Site
							{
								OFFSET 0.000000 32.263779 0.000000
							}
						}
						JOINT Hat
						{
							OFFSET 16.728800 15.048294 -15.439601
							CHANNELS 3 Xrotation Yrotation Zrotation
							End Site
							{
								OFFSET 0.000000 32.263779 0.000000
							}
						}
					}
				}
				JOINT LeftShoulder
				{
					OFFSET 6.197800 13.665199 -4.064700
					CHANNELS 3 Xrotation Yrotation Zrotation
					JOINT LeftArm
					{
						OFFSET 7.778100 -0.187103 -1.709300
						CHANNELS 3 Xrotation Yrotation Zrotation
						JOINT LeftForeArm
						{
							OFFSET 22.049376 0.000000 0.000000
							CHANNELS 3 Xrotation Yrotation Zrotation
							JOINT LeftHand
							{
								OFFSET 23.009392 0.000000 0.000000
								CHANNELS 3 Xrotation Yrotation Zrotation
								JOINT LeftHandThumb1
								{
									OFFSET 3.507191 -2.063065 3.133727
									CHANNELS 3 Xrotation Yrotation Zrotation
									JOINT LeftHandThumb2
									{
										OFFSET 3.101337 -1.790558 1.790558
										CHANNELS 3 Xrotation Yrotation Zrotation
										JOINT LeftHandThumb3
										{
											OFFSET 3.058640 -1.765907 1.765906
											CHANNELS 3 Xrotation Yrotation Zrotation
											End Site
											{
												OFFSET -0.415260 3.926476 -0.049563
											}
										}
									}
								}
								JOINT LeftHandIndex1
								{
									OFFSET 11.334419 -0.901459 3.706815
									CHANNELS 3 Xrotation Yrotation Zrotation
									JOINT LeftHandIndex2
									{
										OFFSET 3.283112 0.000000 0.000000
										CHANNELS 3 Xrotation Yrotation Zrotation
										JOINT LeftHandIndex3
										{
											OFFSET 3.323853 0.000000 0.000000
											CHANNELS 3 Xrotation Yrotation Zrotation
											End Site
											{
												OFFSET -1.135597 3.097809 0.402452
											}
										}
									}
								}
								JOINT LeftHandMiddle1
								{
									OFFSET 11.335861 0.000000 0.000000
									CHANNELS 3 Xrotation Yrotation Zrotation
									JOINT LeftHandMiddle2
									{
										OFFSET 3.410492 0.000000 0.000000
										CHANNELS 3 Xrotation Yrotation Zrotation
										JOINT LeftHandMiddle3
										{
											OFFSET 3.312172 0.000000 0.000000
											CHANNELS 3 Xrotation Yrotation Zrotation
											End Site
											{
												OFFSET -1.150200 3.080154 0.400270
											}
										}
									}
								}
								JOINT LeftHandRing1
								{
									OFFSET 11.514786 -0.013176 -3.003090
									CHANNELS 3 Xrotation Yrotation Zrotation
									JOINT LeftHandRing2
									{
										OFFSET 3.053307 0.000000 0.000000
										CHANNELS 3 Xrotation Yrotation Zrotation
										JOINT LeftHandRing3
										{
											OFFSET 3.295807 0.000000 0.000000
											CHANNELS 3 Xrotation Yrotation Zrotation
											End Site
											{
												OFFSET -1.281006 3.013344 0.375733
											}
										}
									}
								}
								JOINT LeftHandPinky1
								{
									OFFSET 10.518692 -0.960396 -5.730441
									CHANNELS 3 Xrotation Yrotation Zrotation
									JOINT LeftHandPinky2
									{
										OFFSET 2.861649 0.000000 0.000000
										CHANNELS 3 Xrotation Yrotation Zrotation
										JOINT LeftHandPinky3
										{
											OFFSET 2.863380 0.000000 0.000000
											CHANNELS 3 Xrotation Yrotation Zrotation
											End Site
											{
												OFFSET -0.843597 2.711159 0.369971
											}
										}
									}
								}
							}
							JOINT LSleeve
							{
								OFFSET 6.676277 -0.344902 -1.011730
								CHANNELS 3 Xrotation Yrotation Zrotation
								End Site
								{
									OFFSET 0.000000 14.885353 0.000000
								}
							}
						}
					}
				}
				JOINT RightShoulder
				{
					OFFSET -6.197800 13.665199 -4.064700
					CHANNELS 3 Xrotation Yrotation Zrotation
					JOINT RightArm
					{
						OFFSET -7.778100 -0.187103 -1.709300
						CHANNELS 3 Xrotation Yrotation Zrotation
						JOINT RightForeArm
						{
							OFFSET -22.049376 0.000000 0.000000
							CHANNELS 3 Xrotation Yrotation Zrotation
							JOINT RightHand
							{
								OFFSET -23.009392 0.000000 0.000000
								CHANNELS 3 Xrotation Yrotation Zrotation
								JOINT RightHandThumb1
								{
									OFFSET -3.507191 -2.063065 3.133727
									CHANNELS 3 Xrotation Yrotation Zrotation
									JOINT RightHandThumb2
									{
										OFFSET -3.101337 -1.790558 1.790558
										CHANNELS 3 Xrotation Yrotation Zrotation
										JOINT RightHandThumb3
										{
											OFFSET -3.058640 -1.765907 1.765906
											CHANNELS 3 Xrotation Yrotation Zrotation
											End Site
											{
												OFFSET 0.415260 3.926476 -0.049563
											}
										}
									}
								}
								JOINT RightHandIndex1
								{
									OFFSET -11.334419 -0.901459 3.706815
									CHANNELS 3 Xrotation Yrotation Zrotation
									JOINT RightHandIndex2
									{
										OFFSET -3.283112 0.000000 0.000000
										CHANNELS 3 Xrotation Yrotation Zrotation
										JOINT RightHandIndex3
										{
											OFFSET -3.323853 0.000000 0.000000
											CHANNELS 3 Xrotation Yrotation Zrotation
											End Site
											{
												OFFSET 1.135597 3.097809 0.402452
											}
										}
									}
								}
								JOINT RightHandMiddle1
								{
									OFFSET -11.335861 0.000000 0.000000
									CHANNELS 3 Xrotation Yrotation Zrotation
									JOINT RightHandMiddle2
									{
										OFFSET -3.410492 0.000000 0.000000
										CHANNELS 3 Xrotation Yrotation Zrotation
										JOINT RightHandMiddle3
										{
											OFFSET -3.312172 0.000000 0.000000
											CHANNELS 3 Xrotation Yrotation Zrotation
											End Site
											{
												OFFSET 1.150200 3.080154 0.400270
											}
										}
									}
								}
								JOINT RightHandRing1
								{
									OFFSET -11.514786 -0.013176 -3.003090
									CHANNELS 3 Xrotation Yrotation Zrotation
									JOINT RightHandRing2
									{
										OFFSET -3.053307 0.000000 0.000000
										CHANNELS 3 Xrotation Yrotation Zrotation
										JOINT RightHandRing3
										{
											OFFSET -3.295807 0.000000 0.000000
											CHANNELS 3 Xrotation Yrotation Zrotation
											End Site
											{
												OFFSET 1.281006 3.013344 0.375733
											}
										}
									}
								}
								JOINT RightHandPinky1
								{
									OFFSET -10.518692 -0.960396 -5.730441
									CHANNELS 3 Xrotation Yrotation Zrotation
									JOINT RightHandPinky2
									{
										OFFSET -2.861649 0.000000 0.000000
										CHANNELS 3 Xrotation Yrotation Zrotation
										JOINT RightHandPinky3
										{
											OFFSET -2.863380 0.000000 0.000000
											CHANNELS 3 Xrotation Yrotation Zrotation
											End Site
											{
												OFFSET 0.843597 2.711159 0.369971
											}
										}
									}
								}
							}
							JOINT RSleeve
							{
								OFFSET -6.676277 -0.344902 -1.011730
								CHANNELS 3 Xrotation Yrotation Zrotation
								End Site
								{
									OFFSET 0.000000 14.885353 0.000000
								}
							}
						}
					}
				}
				JOINT Backpack
				{
					OFFSET 0.000000 -2.471497 36.677502
					CHANNELS 3 Xrotation Yrotation Zrotation
					End Site
					{
						OFFSET 0.000000 20.427315 0.000000
					}
				}
				JOINT Hood
				{
					OFFSET 0.000000 18.754097 -10.431000
					CHANNELS 3 Xrotation Yrotation Zrotation
					JOINT Hood1
					{
						OFFSET 0.000000 -5.011002 -7.685901
						CHANNELS 3 Xrotation Yrotation Zrotation
						End Site
						{
							OFFSET 0.000000 9.175140 0.000000
						}
					}
				}
				JOINT LHoodieString
				{
					OFFSET 5.250500 16.397697 3.089900
					CHANNELS 3 Xrotation Yrotation Zrotation
					JOINT LHoodieString1
					{
						OFFSET 0.257700 -6.364304 3.694600
						CHANNELS 3 Xrotation Yrotation Zrotation
						JOINT LHoodieString2
						{
							OFFSET 0.000000 -9.643799 2.679100
							CHANNELS 3 Xrotation Yrotation Zrotation
							End Site
							{
								OFFSET 0.000000 10.009018 0.000000
							}
						}
					}
				}
				JOINT RHoodieString
				{
					OFFSET -5.250500 16.397697 3.089900
					CHANNELS 3 Xrotation Yrotation Zrotation
					JOINT RHoodieString1
					{
						OFFSET -0.257700 -6.364304 3.694600
						CHANNELS 3 Xrotation Yrotation Zrotation
						JOINT RHoodieString2
						{
							OFFSET 0.000000 -9.643799 2.679100
							CHANNELS 3 Xrotation Yrotation Zrotation
							End Site
							{
								OFFSET 0.000000 10.009018 0.000000
							}
						}
					}
				}
			}
			JOINT LBackpack_Strap
			{
				OFFSET 15.223200 -7.719803 -6.610900
				CHANNELS 3 Xrotation Yrotation Zrotation
				End Site
				{
					OFFSET 0.000000 16.040596 0.000000
				}
			}
			JOINT RBackpack_Strap
			{
				OFFSET -15.223000 -7.719803 -6.610900
				CHANNELS 3 Xrotation Yrotation Zrotation
				End Site
				{
					OFFSET 0.000000 16.040596 0.000000
				}
			}
		}
	}
	JOINT BoyFacialAnim_Joint
	{
		OFFSET 1.000000 -82.208099 -1.550900
		CHANNELS 3 Xrotation Yrotation Zrotation
		End Site
		{
			OFFSET 0.000000 30.012791 0.000000
		}
	}
}
MOTION
Frames: 4
Frame Time: 0.033333
-0.250042 70.702057 0.244970 11.695780 -49.489526 11.290257 -0.000000 0.000000 -0.000000 -64.578400 28.127904 42.220849 45.035990 -20.081156 3.175744 2.545498 0.952075 -10.119446 -0.000000 0.000000 0.000000 -0.000000 0.000000 0.000000 -0.000001 0.000000 -0.000001 -33.975424 -0.459154 -24.258122 53.259466 1.997502 -6.750495 -26.565350 -2.745310 24.293581 -0.000000 0.000002 0.000000 -0.000000 0.000002 0.000000 0.000002 -0.000001 -0.000003 10.973383 2.836659 -2.050357 6.100706 5.566540 -4.284685 -5.786926 6.328132 -3.046183 2.318607 9.363349 -0.265425 -4.146598 23.161890 -3.523163 -0.000000 0.000000 0.000000 -0.000000 0.000000 0.000000 -0.000000 0.000000 0.000000 -1.875343 -16.181729 -2.870473 -10.644667 2.164741 -45.510636 -22.862342 -25.786247 -15.871645 2.491065 -2.511829 6.860532 18.457970 -9.513798 13.216598 -1.150190 11.255329 -8.400839 -0.000002 -0.000002 0.000001 -1.232795 -5.771924 -0.192326 0.133954 -0.197649 -4.602114 0.000000 -0.000000 -0.000004 1.884741 4.663371 -4.597397 0.476700 -1.009844 -12.986448 0.000005 -0.000001 0.000002 3.024646 7.938918 -14.103487 -0.708018 -0.566209 -18.895725 0.000003 0.000004 -0.000003 2.010406 6.305937 -22.386532 -0.815378 -0.210760 -16.746463 0.000003 0.000002 -0.000002 -0.000003 0.000003 -0.000002 -5.074635 24.343749 1.482700 6.642393 -34.733766 57.610446 -21.032009 44.833826 19.961718 -0.087241 35.608495 7.474290 55.149550 18.649551 -29.698277 -0.442563 -14.180545 7.313139 -0.000003 0.000001 -0.000000 5.673394 7.585010 36.844144 1.050465 3.824503 68.900271 -0.000002 -0.000004 0.000003 -0.125697 1.886093 45.000756 -1.169002 3.204664 68.417663 0.000001 -0.000001 0.000001 -5.312026 1.216652 58.508821 -0.745230 1.667567 48.011278 0.000001 0.000001 0.000000 -7.756811 -9.376440 47.263994 -0.526055 1.541581 45.600525 -0.000003 -0.000001 0.000003 -0.000003 0.000000 -0.000001 0.000002 0.000001 -0.000000 0.000002 0.000001 -0.000000 0.000002 0.000001 -0.000000 0.000002 0.000001 -0.000000 0.000002 0.000001 -0.000000 -0.000000 -0.000001 -0.000000 0.000002 0.000001 -0.000000 0.000002 0.000001 -0.000000 -0.000000 -0.000001 -0.000000 0.000003 0.000003 -0.000001 0.000003 0.000003 -0.000001 -0.000000 0.000000 -0.000000 
-0.321685 70.435135 -0.159786 11.273331 -49.471487 10.860678 -0.000000 -0.000003 -0.000000 -63.823029 26.714069 41.427836 45.368162 -19.686907 3.413198 2.647357 1.814005 -10.929010 -0.000000 0.000000 -0.000000 -0.000000 0.000000 0.000000 -0.000000 0.000003 0.000000 -34.492100 -0.412901 -23.926537 54.647773 1.960819 -6.828056 -27.160341 -2.768937 23.996406 0.000000 0.000000 0.000000 0.000000 0.000000 0.000000 -0.000003 -0.000001 0.000001 11.813693 2.454645 -1.957722 6.078943 5.072279 -4.197334 -5.832397 5.899786 -3.031727 2.714363 9.847591 -0.908380 -5.301128 23.061874 -4.146791 -0.000000 -0.000000 -0.000000 -0.000000 -0.000000 -0.000000 -0.000000 -0.000000 -0.000000 -1.883375 -15.994665 -2.909871 -10.565392 2.102400 -45.581435 -22.660853 -25.680439 -15.752511 2.506312 -2.390010 6.994373 18.447006 -9.417783 13.229250 -1.150196 11.255332 -8.400839 0.000000 0.000001 -0.000003 -1.122651 -5.736115 -0.224252 0.133344 -0.205577 -4.773021 -0.000003 -0.000003 -0.000001 1.896804 4.632227 -4.749956 0.472953 -1.022403 -13.245887 0.000002 0.000000 0.000000 3.025729 7.868233 -14.194605 -0.712290 -0.582181 -19.204364 0.000000 -0.000001 -0.000002 1.990764 6.277394 -22.381721 -0.818446 -0.225796 -17.019167 0.000000 -0.000002 0.000001 0.000003 0.000002 -0.000000 -6.397993 24.878208 2.045046 7.968868 -36.228594 57.681023 -20.434116 47.914091 20.838226 -0.294323 33.748774 6.343504 55.149546 18.649553 -29.698281 -0.442559 -14.180540 7.313142 0.000002 0.000001 0.000001 5.673392 7.585015 36.844144 1.050465 3.824503 68.900264 -0.000001 -0.000001 0.000002 -0.125701 1.886097 45.000756 -1.169001 3.204666 68.417663 0.000003 -0.000001 -0.000002 -5.312029 1.216655 58.508821 -0.745231 1.667562 48.011278 0.000001 0.000001 -0.000001 -7.756807 -9.376439 47.263994 -0.526056 1.541581 45.600522 -0.000001 0.000000 -0.000001 0.000002 -0.000000 -0.000000 0.000003 -0.000000 0.000000 0.000003 -0.000000 0.000000 0.000003 -0.000000 0.000000 0.000003 -0.000000 0.000000 0.000003 -0.000000 0.000000 0.000002 -0.000000 0.000001 0.000003 -0.000000 0.000000 0.000003 -0.000000 0.000000 0.000002 -0.000000 0.000001 0.000001 -0.000000 0.000001 0.000001 -0.000000 0.000001 -0.000000 -0.000003 -0.000000 
-0.407841 70.043236 -0.667694 10.745516 -49.310783 10.349482 -0.000000 0.000000 -0.000000 -62.791794 24.665765 40.183328 45.918969 -19.114532 3.711438 2.740103 3.036450 -12.034266 -0.000000 0.000000 0.000000 -0.000000 0.000000 0.000000 -0.000000 -0.000001 0.000002 -35.169966 -0.337442 -23.565126 56.520597 1.830035 -6.940389 -27.985918 -2.861334 23.681031 -0.000000 -0.000002 -0.000000 -0.000000 -0.000002 -0.000000 -0.000000 -0.000001 -0.000003 12.991222 2.007213 -1.793991 6.039229 4.474167 -4.059390 -5.931717 5.374201 -2.952681 3.389623 10.650587 -1.753759 -6.866922 22.956133 -4.831995 -0.000000 0.000000 -0.000000 -0.000000 0.000000 -0.000000 -0.000000 0.000000 -0.000000 -1.892368 -15.681049 -3.062028 -10.229691 2.183454 -45.638115 -22.300965 -25.834296 -15.697967 2.547283 -2.038338 7.379957 18.416043 -9.145070 13.265596 -1.150194 11.255330 -8.400841 0.000002 -0.000001 -0.000001 -0.809459 -5.635167 -0.315775 0.131474 -0.228007 -5.258652 0.000001 0.000000 -0.000004 1.930336 4.543491 -5.183427 0.462074 -1.058027 -13.983331 -0.000001 -0.000001 -0.000002 3.027634 7.667428 -14.453473 -0.724987 -0.627491 -20.081533 0.000001 0.000003 -0.000003 1.934905 6.196286 -22.368009 -0.827727 -0.268348 -17.794063 0.000000 0.000003 0.000000 0.000003 0.000001 0.000001 -7.360518 25.115832 2.665752 8.400590 -37.240186 57.211676 -20.486985 51.616412 22.462496 -0.013845 31.186920 4.594075 55.149550 18.649557 -29.698277 -0.442560 -14.180549 7.313142 -0.000001 0.000003 0.000001 5.673394 7.585014 36.844144 1.050466 3.824503 68.900271 -0.000001 -0.000002 0.000007 -0.125699 1.886099 45.000753 -1.169001 3.204667 68.417663 0.000004 -0.000002 0.000003 -5.312030 1.216656 58.508828 -0.745233 1.667565 48.011275 0.000000 0.000001 0.000001 -7.756808 -9.376440 47.263994 -0.526057 1.541578 45.600518 0.000002 -0.000004 -0.000004 -0.000000 -0.000001 0.000001 0.000001 0.000001 -0.000000 0.000001 0.000001 -0.000000 0.000001 0.000001 -0.000000 0.000001 0.000001 -0.000000 0.000001 0.000001 0.000000 -0.000000 -0.000002 0.000001 0.000001 0.000001 -0.000000 0.000001 0.000001 0.000000 -0.000000 -0.000002 0.000001 -0.000000 -0.000000 0.000000 -0.000000 -0.000000 0.000000 -0.000000 0.000000 -0.000000 
-0.505264 69.602417 -1.221570 10.121657 -48.962819 9.762477 -0.000000 0.000000 -0.000000 -61.522062 22.192256 38.568842 46.481688 -18.441553 4.039461 2.892634 4.503239 -13.358480 -0.000000 -0.000000 0.000000 -0.000000 -0.000000 -0.000000 -0.000000 -0.000001 0.000001 -35.821610 -0.315857 -23.212196 58.530828 1.581741 -7.069596 -28.898401 -3.011817 23.392355 0.000000 -0.000003 -0.000000 0.000000 -0.000003 -0.000000 -0.000003 -0.000000 -0.000000 14.376812 1.509930 -1.571493 5.972547 3.813855 -3.879668 -6.076910 4.778795 -2.815628 4.297484 11.775749 -2.697823 -8.652117 22.835643 -5.483678 -0.000000 0.000000 0.000000 -0.000000 0.000000 0.000000 -0.000000 0.000000 0.000000 -1.884921 -15.059534 -3.288614 -9.651411 2.250662 -45.742173 -21.782515 -26.172781 -15.672030 2.603078 -1.477264 7.992624 18.368076 -8.718542 13.323495 -1.150196 11.255329 -8.400836 -0.000001 -0.000001 0.000004 -0.318853 -5.479525 -0.461107 0.128182 -0.263217 -6.018434 -0.000000 0.000002 -0.000005 1.980556 4.404231 -5.861353 0.444298 -1.113561 -15.137082 -0.000002 0.000001 -0.000001 3.027066 7.353695 -14.858127 -0.746491 -0.697777 -21.453677 0.000000 0.000000 -0.000000 1.847639 6.069362 -22.346869 -0.843732 -0.334483 -19.006326 -0.000002 -0.000001 0.000003 -0.000001 0.000000 0.000000 -7.865192 24.971491 3.270166 7.673688 -37.610351 56.059420 -21.102563 55.014865 24.576511 0.596744 28.393014 2.541160 55.149556 18.649550 -29.698277 -0.442560 -14.180550 7.313138 -0.000002 -0.000003 -0.000001 5.673395 7.585013 36.844141 1.050466 3.824509 68.900271 0.000002 0.000000 0.000002 -0.125694 1.886093 45.000749 -1.169002 3.204659 68.417657 -0.000000 0.000001 0.000002 -5.312024 1.216654 58.508821 -0.745230 1.667566 48.011275 0.000003 0.000001 0.000002 -7.756805 -9.376442 47.263994 -0.526054 1.541574 45.600522 0.000003 -0.000002 -0.000002 0.000001 -0.000002 0.000001 0.000001 -0.000001 -0.000000 0.000001 -0.000001 -0.000000 0.000001 -0.000001 -0.000000 0.000001 -0.000001 -0.000000 0.000001 -0.000001 -0.000000 -0.000000 -0.000002 0.000000 0.000001 -0.000001 -0.000000 0.000001 -0.000001 -0.000000 -0.000000 -0.000002 0.000000 0.000002 -0.000001 0.000001 0.000002 -0.000001 0.000001 -0.000000 0.000000 -0.000000 
